<svg xmlns="http://www.w3.org/2000/svg" xmlns:xlink="http://www.w3.org/1999/xlink" version="1.1" id="hammer-layer" x="0px" y="0px" width="100px" height="100px" viewBox="0 0 100 100" style="enable-background:new 0 0 100 100;" xml:space="preserve">
<rect id="frame_29_" style="fill:none;" width="100" height="100"/>
<path style="fill:#1D1D1B;" d="M77.84,75.753c0,0-1.402-7.532-16.263-16.565c-0.44-0.268-2.028-1.231-4.167-2.531L38.104,88.422  l-11.451-6.96l19.305-31.763c-1.248-0.759-2.414-1.467-3.416-2.075c-0.923-0.561-1.586-1.465-1.842-2.515  c-0.256-1.049-0.085-2.156,0.477-3.079l0.437-0.719l-3.992-2.426l-0.437,0.718c-0.561,0.923-1.465,1.585-2.514,1.841  c-1.049,0.256-2.156,0.085-3.08-0.476l-9.541-5.8l9.812-16.145l9.541,5.799c0.924,0.561,1.586,1.465,1.842,2.514  c0.256,1.049,0.084,2.157-0.477,3.079l-0.006,0.009l3.992,2.426l0.005-0.007c1.168-1.922,3.671-2.532,5.593-1.364  c5.36,3.258,15.123,9.19,16.045,9.751C79.68,48.088,77.84,75.753,77.84,75.753z"/>
</svg>